<svg xmlns="http://www.w3.org/2000/svg" aria-hidden="true" focusable="false" data-prefix="fas" data-icon="dice-d20" role="img" width="480" height="512"><rect id="backgroundrect" width="100%" height="100%" x="0" y="0" fill="none" stroke="none"/><g class="currentLayer" style=""><title>Layer 1</title><path fill="#475c6c" d="M105.71907222270966,215.06 L0.16907222270965572,370.95 c-3.08,5 0.1,11.5 5.93,12.14 l208.26,22.07 l-108.64,-190.1 zM6.379072222709656,315.43 L81.66907222270966,193.08 L5.029072222709655,147.1 c-2.67,-1.6 -6.06,0.32000000000000006 -6.06,3.43 v162.81 c0,4.03 5.29,5.53 7.41,2.09 zM17.219072222709656,423.6 l194.4,87.66 c5.3,2.45 11.35,-1.4300000000000002 11.35,-7.26 v-65.67 l-203.55,-22.3 c-4.45,-0.5 -6.23,5.59 -2.2,7.57 zm81.22,-257.78 L178.36907222270966,22.88 c4.34,-7.06 -3.59,-15.25 -10.78,-11.14 L16.779072222709654,110.35 c-2.47,1.62 -2.39,5.26 0.13,6.78 l81.53,48.69 zM238.96907222270966,176 h109.21 L252.59907222270965,7.62 C249.46907222270966,2.54 244.21907222270966,0 238.96907222270966,0 s-10.5,2.54 -13.63,7.62 L129.75907222270965,176 H238.96907222270966 zm233.94,-28.9 l-76.64,45.99 l75.29,122.35 c2.11,3.44 7.41,1.94 7.41,-2.1 V150.53 c0,-3.11 -3.39,-5.03 -6.06,-3.43 zm-93.41,18.72 l81.53,-48.7 c2.5300000000000002,-1.52 2.6,-5.16 0.13,-6.78 l-150.81,-98.6 c-7.19,-4.11 -15.12,4.08 -10.78,11.14 l79.93,142.94 zm79.02,250.21 L254.96907222270966,438.32 v65.67 c0,5.84 6.05,9.71 11.35,7.26 l194.4,-87.66 c4.03,-1.97 2.25,-8.06 -2.2,-7.5600000000000005 zm-86.3,-200.97 l-108.63,190.1 l208.26,-22.07 c5.83,-0.6500000000000001 9.01,-7.14 5.93,-12.14 L372.21907222270966,215.06 zM238.96907222270966,208 H138.53907222270965 L238.96907222270966,383.75 L339.39907222270966,208 H238.96907222270966 z" id="svg_1" class="selected" fill-opacity="1"/></g></svg>